#tb 0: 1/25
#media_type 0: video
#codec_id 0: rawvideo
#dimensions 0: 352x288
#sar 0: 0/1
0,          0,          0,        1,   608256, 0xee06377f
0,          1,          1,        1,   608256, 0x9c22c5ee
0,          2,          2,        1,   608256, 0x322abee2
0,          3,          3,        1,   608256, 0x82745ed3
0,          4,          4,        1,   608256, 0xe7b9248b
0,          5,          5,        1,   608256, 0xc8c1ce0e
0,          6,          6,        1,   608256, 0x8451eba9
0,          7,          7,        1,   608256, 0xece9412d
0,          8,          8,        1,   608256, 0xffbc2c24
0,          9,          9,        1,   608256, 0xf58c117e
0,         10,         10,        1,   608256, 0x7853f334
0,         11,         11,        1,   608256, 0x1acd6465
0,         12,         12,        1,   608256, 0xb668856c
0,         13,         13,        1,   608256, 0x3f52c230
0,         14,         14,        1,   608256, 0xd7e8b5b6
0,         15,         15,        1,   608256, 0xf663681d
0,         16,         16,        1,   608256, 0x07ef670c
0,         17,         17,        1,   608256, 0x1d5084f4
0,         18,         18,        1,   608256, 0x0ea3fe04
0,         19,         19,        1,   608256, 0xf095d1e0
0,         20,         20,        1,   608256, 0xbdac37fb
0,         21,         21,        1,   608256, 0x2cbfdf91
0,         22,         22,        1,   608256, 0x8da7190f
0,         23,         23,        1,   608256, 0x08bf6fc9
0,         24,         24,        1,   608256, 0xa2368e5c
0,         25,         25,        1,   608256, 0x36d38f81
0,         26,         26,        1,   608256, 0x94d344cc
0,         27,         27,        1,   608256, 0x1cf33f86
0,         28,         28,        1,   608256, 0x98d6341f
0,         29,         29,        1,   608256, 0xb04e3a3a
0,         30,         30,        1,   608256, 0x74e52483
0,         31,         31,        1,   608256, 0x6acc8d96
0,         32,         32,        1,   608256, 0x136d6c4e
0,         33,         33,        1,   608256, 0x50efa37a
0,         34,         34,        1,   608256, 0x53170421
0,         35,         35,        1,   608256, 0x2ed5210e
0,         36,         36,        1,   608256, 0x5f471854
0,         37,         37,        1,   608256, 0xd6ff7856
0,         38,         38,        1,   608256, 0x446bf456
0,         39,         39,        1,   608256, 0x872b95b1
0,         40,         40,        1,   608256, 0xc9e5e827
0,         41,         41,        1,   608256, 0xdab3eb04
0,         42,         42,        1,   608256, 0xccd6347e
0,         43,         43,        1,   608256, 0xd7dfd0a9
0,         44,         44,        1,   608256, 0x60b834c3
0,         45,         45,        1,   608256, 0x0b822676
0,         46,         46,        1,   608256, 0x0e5d3d5a
0,         47,         47,        1,   608256, 0x1fa0233d
0,         48,         48,        1,   608256, 0xb853b650
0,         49,         49,        1,   608256, 0x30d8d033
0,         50,         50,        1,   608256, 0x27a069a3
0,         51,         51,        1,   608256, 0x22a5ff96
0,         52,         52,        1,   608256, 0x29ad753f
0,         53,         53,        1,   608256, 0x955788a6
0,         54,         54,        1,   608256, 0xb73599c5
0,         55,         55,        1,   608256, 0x73765aca
0,         56,         56,        1,   608256, 0x39118f45
0,         57,         57,        1,   608256, 0xfb0f8b96
0,         58,         58,        1,   608256, 0xfcf71085
0,         59,         59,        1,   608256, 0xccaaca7d
0,         60,         60,        1,   608256, 0xde873299
0,         61,         61,        1,   608256, 0x5d904202
0,         62,         62,        1,   608256, 0x1e92c9b8
0,         63,         63,        1,   608256, 0xdb8ec231
0,         64,         64,        1,   608256, 0x388e2b9f
0,         65,         65,        1,   608256, 0x1d190c39
0,         66,         66,        1,   608256, 0xb6609efd
0,         67,         67,        1,   608256, 0x0c6bf1d0
0,         68,         68,        1,   608256, 0x178e0a3c
0,         69,         69,        1,   608256, 0x439509f7
0,         70,         70,        1,   608256, 0x00eb29ec
0,         71,         71,        1,   608256, 0xee45f2a0
0,         72,         72,        1,   608256, 0xae62eb8c
0,         73,         73,        1,   608256, 0x3bb7510d
0,         74,         74,        1,   608256, 0x03f08d02
0,         75,         75,        1,   608256, 0x4beffc2a
0,         76,         76,        1,   608256, 0x6071eb56
0,         77,         77,        1,   608256, 0xbcb4e4e5
0,         78,         78,        1,   608256, 0x775864aa
0,         79,         79,        1,   608256, 0x3cfa0a94
0,         80,         80,        1,   608256, 0x4652d529
0,         81,         81,        1,   608256, 0xc5be07e2
0,         82,         82,        1,   608256, 0xe7b480a2
0,         83,         83,        1,   608256, 0x83b11945
0,         84,         84,        1,   608256, 0x25ff0458
0,         85,         85,        1,   608256, 0x5a780cda
0,         86,         86,        1,   608256, 0x3448077c
0,         87,         87,        1,   608256, 0x0f9c6f09
0,         88,         88,        1,   608256, 0x05ece146
0,         89,         89,        1,   608256, 0x3b02b504
0,         90,         90,        1,   608256, 0xf3a8e2a6
0,         91,         91,        1,   608256, 0xd4544847
0,         92,         92,        1,   608256, 0x49bd2a3f
0,         93,         93,        1,   608256, 0x22a42082
0,         94,         94,        1,   608256, 0x8d8d1923
0,         95,         95,        1,   608256, 0x2ba6877f
0,         96,         96,        1,   608256, 0x494d481b
0,         97,         97,        1,   608256, 0x28c99c35
0,         98,         98,        1,   608256, 0x80128077
0,         99,         99,        1,   608256, 0x887c2fb0
